<?xml version="1.0" standalone="no"?>
<!DOCTYPE svg PUBLIC "-//W3C//DTD SVG 20010904//EN"
 "http://www.w3.org/TR/2001/REC-SVG-20010904/DTD/svg10.dtd">
<svg version="1.0" xmlns="http://www.w3.org/2000/svg"
 width="1280.000000pt" height="640.000000pt" viewBox="0 0 1280.000000 640.000000"
 preserveAspectRatio="xMidYMid meet">
<g transform="translate(0.000000,640.000000) scale(0.100000,-0.100000)"
fill="#000000" stroke="none">
<path d="M4141 5650 c17 -36 60 -111 95 -167 35 -55 64 -106 64 -112 0 -6 -12
-14 -27 -17 -86 -20 -429 -123 -566 -170 -148 -50 -207 -74 -147 -60 14 3 99
24 190 45 173 42 486 106 568 117 l47 6 73 -81 c182 -201 395 -328 630 -374
56 -11 102 -24 102 -28 0 -31 -341 -77 -630 -85 -728 -22 -1300 214 -1647 679
-40 54 -73 95 -73 90 0 -16 113 -209 178 -303 272 -396 620 -644 1026 -730 89
-19 104 -25 93 -36 -22 -23 -416 -31 -620 -13 -416 36 -749 121 -1062 273
-292 142 -483 290 -723 561 -49 54 -52 56 -31 20 104 -188 283 -420 453 -591
298 -298 613 -485 994 -590 69 -19 128 -36 130 -39 16 -16 -246 6 -488 41
-626 90 -1153 234 -1511 415 -129 64 -205 114 -356 232 -63 48 134 -190 267
-323 341 -343 716 -569 1155 -695 85 -25 332 -68 458 -81 102 -10 68 -29 -113
-63 -268 -50 -604 -72 -917 -59 -466 19 -885 112 -1299 287 -64 28 -113 46
-108 41 18 -18 263 -153 444 -245 669 -338 1325 -552 1965 -640 l116 -16 92
83 c318 291 676 532 1107 747 437 218 862 366 1320 460 339 69 885 128 897 95
2 -5 -16 -21 -39 -34 -209 -115 -458 -328 -610 -518 -251 -315 -395 -658 -439
-1042 -16 -146 -6 -454 19 -585 45 -227 90 -362 181 -550 201 -410 511 -717
938 -926 79 -39 143 -73 143 -76 0 -17 -381 34 -615 83 -964 202 -1735 622
-2405 1310 -141 145 -279 301 -390 442 -36 45 -67 77 -69 71 -7 -21 206 -431
289 -558 45 -68 77 -127 73 -131 -4 -4 -46 -17 -93 -29 -309 -80 -609 -274
-783 -507 -62 -82 -143 -221 -135 -230 3 -2 32 27 64 66 59 71 170 170 254
227 212 144 492 246 786 287 l99 14 145 -143 c140 -137 255 -238 281 -247 30
-10 -4 -34 -72 -51 -41 -10 -123 -43 -184 -72 -132 -65 -234 -153 -306 -263
-80 -122 -79 -151 3 -77 29 26 93 76 143 110 196 136 384 205 562 205 l76 0
140 -91 c146 -95 345 -204 432 -234 28 -10 54 -22 58 -26 5 -4 -25 -32 -66
-62 -42 -31 -102 -82 -134 -114 -60 -59 -173 -195 -173 -207 0 -4 19 5 43 19
169 104 356 176 519 201 122 19 186 14 288 -21 470 -162 1352 -246 2274 -216
1152 36 2325 176 3728 443 l383 73 300 0 c227 -1 332 -5 434 -18 73 -10 136
-16 138 -13 6 5 -224 79 -389 125 -236 66 -457 99 -578 87 -36 -4 -240 -38
-455 -77 -1193 -214 -2046 -332 -2845 -394 -220 -17 -334 -19 -326 -6 3 5 43
23 88 41 484 192 878 549 1110 1007 363 714 288 1520 -198 2159 -30 39 -54 73
-54 77 0 15 38 4 183 -54 1065 -431 2223 -1177 3325 -2143 101 -89 206 -181
233 -204 27 -24 49 -40 49 -35 0 17 -208 283 -421 538 -279 334 -731 804
-1039 1081 -1423 1276 -2851 1960 -4329 2074 -185 14 -639 13 -802 -2 -194
-19 -546 -15 -699 6 -270 37 -567 111 -722 180 -94 42 -90 45 122 76 848 125
1804 117 2634 -21 651 -109 1260 -284 1845 -532 1023 -433 1996 -1094 2869
-1951 100 -98 182 -175 182 -170 0 16 -311 366 -464 523 -1276 1301 -2784
2085 -4464 2321 -765 107 -1547 101 -2337 -20 -224 -35 -375 -62 -503 -91 -51
-11 -104 -18 -117 -15 -40 10 -219 151 -290 229 l-66 72 32 -65z"/>
</g>
</svg>
